# xmcd
#
# Track frame offsets: 
#        150
#        25915
#        43418
#        60265
#        80965
#        101983
#        117117
#        135174
#        161572
#        181101
#        201163
#        221530
#
# Disc length: 3206 seconds
#
# Revision: 0
# Processed by: cddbd v1.5.2PL0 Copyright (c) Steve Scherf et al.
# Submitted via: ExactAudioCopy v1.0b3
#
DISCID=a40c840c
DTITLE=Eric Clapton - Old Sock
DYEAR=2013
DGENRE=Blues
TTITLE0=Further On Down The Road 
TTITLE1=Angel
TTITLE2=The Folks Who Live On The Hill
TTITLE3=Gotta Get Over
TTITLE4=Till Your Well Runs Dry
TTITLE5=All Of Me
TTITLE6=Born To Lose
TTITLE7=Still Got The Blues
TTITLE8=Goodnight Irene
TTITLE9=Your One And Only Man
TTITLE10=Every Little Thing
TTITLE11=Our Love Is Here To Stay
EXTD=
EXTT0=
EXTT1=
EXTT2=
EXTT3=
EXTT4=
EXTT5=
EXTT6=
EXTT7=
EXTT8=
EXTT9=
EXTT10=
EXTT11=
PLAYORDER=
